<svg xmlns="http://www.w3.org/2000/svg" width="256" height="256" viewBox="0 0 16 16" role="img" aria-labelledby="title desc" shape-rendering="crispEdges">
  <title id="title">pswg pixel art logo</title>
  <desc id="desc">A pixel art shield with a keyhole and spark pixels.</desc>
  <rect width="16" height="16" fill="#0f172a"/>
  <rect x="4" y="1" width="8" height="1" fill="#38bdf8"/>
  <rect x="3" y="2" width="10" height="1" fill="#38bdf8"/>
  <rect x="2" y="3" width="12" height="3" fill="#38bdf8"/>
  <rect x="2" y="6" width="1" height="2" fill="#38bdf8"/>
  <rect x="13" y="6" width="1" height="2" fill="#38bdf8"/>
  <rect x="3" y="8" width="10" height="2" fill="#38bdf8"/>
  <rect x="4" y="10" width="8" height="2" fill="#38bdf8"/>
  <rect x="5" y="12" width="6" height="1" fill="#38bdf8"/>
  <rect x="6" y="13" width="4" height="1" fill="#38bdf8"/>
  <rect x="7" y="14" width="2" height="1" fill="#38bdf8"/>
  <rect x="4" y="3" width="8" height="1" fill="#7dd3fc"/>
  <rect x="3" y="4" width="10" height="1" fill="#7dd3fc"/>
  <rect x="4" y="5" width="8" height="1" fill="#0284c7"/>
  <rect x="4" y="7" width="8" height="1" fill="#0284c7"/>
  <rect x="5" y="9" width="6" height="1" fill="#0284c7"/>
  <rect x="6" y="11" width="4" height="1" fill="#0284c7"/>
  <rect x="7" y="5" width="2" height="2" fill="#f8fafc"/>
  <rect x="7" y="7" width="2" height="3" fill="#f8fafc"/>
  <rect x="6" y="6" width="1" height="1" fill="#f8fafc"/>
  <rect x="9" y="6" width="1" height="1" fill="#f8fafc"/>
  <rect x="1" y="1" width="1" height="1" fill="#facc15"/>
  <rect x="14" y="2" width="1" height="1" fill="#facc15"/>
  <rect x="1" y="12" width="1" height="1" fill="#facc15"/>
  <rect x="14" y="13" width="1" height="1" fill="#facc15"/>
</svg>
